<svg id="Layer_1" data-name="Layer 1" xmlns="http://www.w3.org/2000/svg" viewBox="0 0 1024 1024"><defs><style>.cls-1{fill:none;}.cls-1,.cls-2{stroke:#fff;stroke-miterlimit:10;}.cls-2{fill:#fff;}</style></defs><title>White-pandora-o-crown</title><path class="cls-1" d="M836.32,629.11c0-11.17.84-22.41-.13-33.5-9-103-55.45-183-149.81-228.88-108.21-52.66-219.73-53.17-330.4-7.54-75.52,31.14-125.66,88.1-152.22,165.29-16.68,48.47-21.75,98.78-18,149.59,7.6,102.87,54.31,182.34,145.93,232.33,68.71,37.49,143.24,47.34,220.37,40.48,57.61-5.12,111.6-21.78,159.12-55.51C801.41,827.34,835.68,735.93,836.32,629.11ZM589,273.11c-52-7.17-102.09-7.59-153.75.77L443,300.13H580.37C582.63,293,585.5,284.06,589,273.11ZM513.75,49.18l-3.38-.27Q498.85,118.35,487.3,188h49.4C528.9,140.81,521.33,95,513.75,49.18ZM652.32,60.82c-.81-.53-1.62-1.06-2.42-1.6L563.47,190.89,611.81,197ZM372.21,59l-2.28,1.16c13.91,45.62,27.83,91.24,41.84,137.18L460,190.57ZM511.3,206.74c-12.2.28-20.73,9.43-20.25,21.71.46,11.63,8.92,19.67,20.73,19.71,12.4,0,21.22-8.71,21-20.87S523.43,206.45,511.3,206.74ZM467.72,232c0-11.36-10.35-21.36-21.73-21.05-10.94.3-20.2,9.71-20.43,20.77a21,21,0,0,0,20.9,21.62A21.29,21.29,0,0,0,467.72,232Zm130.06.91c.36-11.75-9-21.83-20.48-22.07s-21.18,9.52-21.24,21.34a20.86,20.86,0,0,0,41.72.73Z"/><path class="cls-2" d="M836.32,629.11c-.64,106.82-34.91,198.23-125.13,262.26-47.52,33.73-101.51,50.39-159.12,55.51-77.13,6.86-151.66-3-220.37-40.48-91.62-50-138.33-129.46-145.93-232.33-3.76-50.81,1.31-101.12,18-149.59,26.56-77.19,76.7-134.15,152.22-165.29,110.67-45.63,222.19-45.12,330.4,7.54,94.36,45.92,140.77,125.88,149.81,228.88C837.16,606.7,836.32,617.94,836.32,629.11Zm-117.53,5.54c-2.6-25.59-3.93-51.4-8.06-76.75-8.37-51.28-25.61-99.07-64.23-136-90.07-86.14-245-59.73-302.92,54.1-53.21,104.66-53.12,213.2-4.79,319.56,32.51,71.54,91.77,107.62,170.91,108.14,79.4.52,136.09-36.9,172.12-106.63C708.09,746.23,717.63,691.59,718.79,634.65Z"/><path class="cls-2" d="M589,273.11c-3.49,10.95-6.36,19.93-8.62,27H443l-7.76-26.25C486.9,265.52,537,265.94,589,273.11Z"/><path class="cls-2" d="M513.75,49.18c7.58,45.82,15.15,91.63,23,138.8H487.3q11.56-69.73,23.07-139.07Z"/><path class="cls-2" d="M652.32,60.82,611.81,197l-48.34-6.13L649.9,59.22C650.7,59.76,651.51,60.29,652.32,60.82Z"/><path class="cls-2" d="M372.21,59,460,190.57l-48.19,6.76c-14-45.94-27.93-91.56-41.84-137.18Z"/><path class="cls-2" d="M511.3,206.74c12.13-.29,21.3,8.48,21.5,20.55s-8.62,20.91-21,20.87c-11.81,0-20.27-8.08-20.73-19.71C490.57,216.17,499.1,207,511.3,206.74Z"/><path class="cls-2" d="M467.72,232a21.29,21.29,0,0,1-21.26,21.34,21,21,0,0,1-20.9-21.62c.23-11.06,9.49-20.47,20.43-20.77C457.37,210.63,467.69,220.63,467.72,232Z"/><path class="cls-2" d="M597.78,232.9a20.86,20.86,0,0,1-41.72-.73c.06-11.82,9.78-21.58,21.24-21.34S598.14,221.15,597.78,232.9Z"/></svg>